<svg width="40" height="40" xmlns="http://www.w3.org/2000/svg" class="elastic-logo" fill="none">
 <g>
  <title>elastic visark</title>
  <g id="svg_1">
   <path d="m40.1527,20.9588c0,-3.3602 -2.0874,-6.3131 -5.227,-7.4501c0.1358,-0.7128 0.2037,-1.4256 0.2037,-2.1553c0,-6.26219 -5.0912,-11.35342 -11.3364,-11.35342c-3.6657,0 -7.0599,1.74799 -9.1982,4.7009c-1.0522,-0.8146 -2.3419,-1.25583 -3.6826,-1.25583c-3.32629,0 -6.02463,2.69834 -6.02463,6.0246c0,0.72975 0.13576,1.44255 0.37335,2.10435c-3.12261,1.1201 -5.26092,4.1239 -5.26092,7.4671c0,3.3772 2.10437,6.3301 5.24395,7.4672c-0.13576,0.6958 -0.20365,1.4255 -0.20365,2.1552c0,6.2453 5.0743,11.3195 11.3195,11.3195c3.6657,0 7.0598,-1.7649 9.1811,-4.7179c1.0522,0.8316 2.342,1.2898 3.6827,1.2898c3.3262,0 6.0246,-2.6983 6.0246,-6.0246c0,-0.7297 -0.1358,-1.4425 -0.3734,-2.1044c3.1226,-1.12 5.2779,-4.1238 5.2779,-7.4671z" fill="white" id="svg_2"/>
   <path d="m15.7824,17.2253l8.7908,4.0051l8.8588,-7.7726c0.1357,-0.6449 0.1866,-1.2728 0.1866,-1.9517c0,-5.46454 -4.4463,-9.91087 -9.9109,-9.91087c-3.2753,0 -6.3131,1.61222 -8.1629,4.31057l-1.4764,7.6538l1.714,3.6657z" fill="#FED10A" id="svg_3"/>
   <path d="m6.68665,26.5253c-0.13577,0.6449 -0.18668,1.3067 -0.18668,1.9855c0,5.4816 4.46333,9.9279 9.94483,9.9279c3.2923,0 6.364,-1.6292 8.2139,-4.3445l1.4594,-7.6198l-1.9516,-3.7336l-8.8248,-4.0221l-8.65505,7.8066z" fill="#24BBB1" id="svg_4"/>
   <path d="m6.63518,11.3195l6.02462,1.4255l1.3237,-6.83917c-0.8146,-0.62792 -1.8328,-0.96734 -2.885,-0.96734c-2.61351,0 -4.75182,2.12134 -4.75182,4.7518c0,0.56001 0.10182,1.12011 0.2885,1.62921z" fill="#EF5098" id="svg_5"/>
   <path d="m6.10983,12.762c-2.68137,0.8824 -4.56512,3.462 -4.56512,6.2961c0,2.7662 1.71404,5.227 4.27662,6.2113l8.45147,-7.6368l-1.5444,-3.3093l-6.61857,-1.5613z" fill="#1BA9F5" id="svg_6"/>
   <path d="m26.186,34.0942c0.8316,0.6279 1.8329,0.9843 2.8681,0.9843c2.6135,0 4.7518,-2.1214 4.7518,-4.7518c0,-0.577 -0.1018,-1.1371 -0.2885,-1.6462l-6.0076,-1.4086l-1.3238,6.8223z" fill="#93C83E" id="svg_7"/>
   <path d="m27.4075,25.6937l6.6186,1.5443c2.6984,-0.8825 4.5651,-3.462 4.5651,-6.3131c0,-2.7492 -1.714,-5.227 -4.2766,-6.1943l-8.6551,7.5859l1.748,3.3772z" fill="#0077CC" id="svg_8"/>
  </g>
 </g>
</svg>